<svg width="30" height="29" viewBox="0 0 30 29" fill="none" xmlns="http://www.w3.org/2000/svg">
<path d="M22.4995 0.6875C21.1469 0.688513 19.8276 1.10724 18.7219 1.88643C17.6163 2.66563 16.7782 3.76728 16.3224 5.04078C15.801 4.86372 15.2676 4.72414 14.7263 4.62313C14.042 4.5073 13.3497 4.44523 12.6558 4.4375C10.1231 4.4376 7.65869 5.25819 5.63151 6.77637C3.60434 8.29455 2.12356 10.4286 1.41095 12.8589C0.698336 15.2893 0.792245 17.885 1.67861 20.2575C2.56498 22.63 4.19609 24.6515 6.32767 26.0192C5.97942 26.0774 5.6658 26.2644 5.44911 26.5432C5.23241 26.8219 5.1285 27.172 5.15803 27.5238C5.18755 27.8757 5.34834 28.2035 5.60845 28.4423C5.86857 28.681 6.20897 28.8132 6.56204 28.8125H9.84329V27.875H6.56204C6.43772 27.875 6.3185 27.8256 6.23059 27.7377C6.14268 27.6498 6.09329 27.5306 6.09329 27.4062C6.09329 27.2819 6.14268 27.1627 6.23059 27.0748C6.3185 26.9869 6.43772 26.9375 6.56204 26.9375H8.16048C8.26827 26.9376 8.3728 26.9006 8.45647 26.8327C8.54015 26.7647 8.59786 26.67 8.61987 26.5645C8.64189 26.459 8.62687 26.3491 8.57735 26.2534C8.52782 26.1576 8.44682 26.0819 8.34798 26.0389C7.25674 25.561 6.25232 24.9054 5.37564 24.0988L6.3572 23.1172L5.69486 22.4544L4.71048 23.4387C2.99818 21.5701 2.00006 19.1572 1.89189 16.625H3.28079V15.6875H1.88626C1.9947 13.1545 2.9958 10.7415 4.71236 8.87563L5.69673 9.86L6.35954 9.19719L5.37517 8.21281C7.24103 6.49625 9.65401 5.49516 12.187 5.38672V6.78125H13.1245V5.38906C13.6056 5.41527 14.0849 5.46754 14.5603 5.54563C15.0725 5.6374 15.5773 5.76649 16.0706 5.93188V5.94359C16.0327 6.13109 16.0055 6.31859 15.9839 6.50938C15.9783 6.55938 15.9731 6.60953 15.9685 6.65984C15.9492 6.85531 15.937 7.05172 15.937 7.25C15.9376 8.08029 16.0967 8.90283 16.4058 9.67344C15.6993 9.25821 14.9286 8.96341 14.1253 8.80109C13.9678 8.77203 13.8099 8.74438 13.6566 8.72609C12.9951 8.63422 12.324 8.63422 11.6625 8.72609C11.5003 8.74578 11.3424 8.77297 11.1652 8.80531H11.1577C10.2162 8.99551 9.3212 9.36848 8.52329 9.90312C8.38267 9.99687 8.24204 10.093 8.11361 10.1938C7.57879 10.598 7.10254 11.0744 6.69845 11.6094C6.59345 11.7439 6.49783 11.8841 6.4022 12.0261C5.86343 12.8323 5.48909 13.7369 5.30064 14.6881C5.27158 14.8456 5.24392 15.0036 5.22564 15.1569C5.13345 15.8184 5.13345 16.4894 5.22564 17.1509C5.24533 17.3131 5.27251 17.4711 5.30486 17.6483V17.6506V17.6581C5.49505 18.5996 5.86803 19.4946 6.40267 20.2925C6.49642 20.4331 6.59017 20.5738 6.69329 20.7022C7.09783 21.2357 7.57422 21.7107 8.10892 22.1136C8.24345 22.2186 8.38361 22.3142 8.52564 22.4098C9.33185 22.9486 10.2365 23.323 11.1877 23.5114C11.3452 23.5405 11.5031 23.5686 11.6564 23.5864C12.3179 23.6786 12.989 23.6786 13.6505 23.5864C13.8127 23.5672 13.9706 23.5395 14.1478 23.5072H14.1553C15.0968 23.317 15.9918 22.944 16.7897 22.4094C16.9303 22.3156 17.071 22.2195 17.1994 22.1188C17.7337 21.7144 18.2095 21.238 18.6131 20.7031C18.7181 20.5686 18.8138 20.4284 18.9094 20.2864C19.4482 19.4802 19.8225 18.5756 20.011 17.6244C20.04 17.4669 20.0681 17.3089 20.086 17.1556C20.1781 16.4941 20.1781 15.8231 20.086 15.1616C20.0667 14.9994 20.0391 14.8414 20.0067 14.6642V14.6567C19.8935 14.1108 19.7188 13.5794 19.486 13.0728C20.4163 13.5585 21.4501 13.8122 22.4995 13.8125C22.7156 13.8125 22.9256 13.7998 23.13 13.7802C23.146 13.7802 23.1633 13.7802 23.1792 13.7778C23.3295 14.4039 23.4144 15.0439 23.4324 15.6875H22.0308V16.625H23.4127C23.2055 19.3067 21.8095 21.5239 20.3227 23.1603L19.6163 22.4544L18.9535 23.1172L19.6725 23.8363C18.8221 24.6714 17.892 25.4213 16.8956 26.0755C16.8108 26.1305 16.746 26.2115 16.711 26.3064C16.6759 26.4013 16.6725 26.505 16.7013 26.6019C16.73 26.6989 16.7893 26.784 16.8704 26.8445C16.9515 26.905 17.05 26.9376 17.1511 26.9375H18.7495C18.8739 26.9375 18.9931 26.9869 19.081 27.0748C19.1689 27.1627 19.2183 27.2819 19.2183 27.4062C19.2183 27.5306 19.1689 27.6498 19.081 27.7377C18.9931 27.8256 18.8739 27.875 18.7495 27.875H12.7027V28.8125H18.7495C19.1225 28.8125 19.4802 28.6643 19.7439 28.4006C20.0076 28.1369 20.1558 27.7792 20.1558 27.4062C20.1558 27.0333 20.0076 26.6756 19.7439 26.4119C19.4802 26.1482 19.1225 26 18.7495 26H18.615C20.7713 24.3294 24.2658 20.8995 24.3745 16.1666C24.3902 15.3064 24.2968 14.4477 24.0966 13.6109C25.6494 13.2217 27.0063 12.2781 27.9117 10.9578C28.8171 9.63761 29.2085 8.03187 29.0121 6.4431C28.8158 4.85432 28.0453 3.39217 26.8457 2.33205C25.6462 1.27193 24.1004 0.687025 22.4995 0.6875ZM18.427 13.0391C18.6421 13.4338 18.815 13.8502 18.9427 14.2812H17.1825L18.427 13.0391ZM14.5308 9.8675C14.9619 9.99515 15.3782 10.168 15.773 10.3831L14.5308 11.6295V9.8675ZM10.7808 9.8675V11.6291L9.53861 10.3845C9.93334 10.1691 10.3497 9.99597 10.7808 9.86797V9.8675ZM6.88454 13.0391L8.12908 14.2812H6.36704C6.49529 13.8501 6.66876 13.4337 6.88454 13.0391ZM6.36751 18.0312H8.12908L6.88454 19.2734C6.66897 18.8787 6.49567 18.4624 6.36751 18.0312ZM10.7808 22.445C10.3497 22.3174 9.93336 22.1445 9.53861 21.9294L10.7808 20.683V22.445ZM14.5308 22.445V20.683L15.773 21.9275C15.3783 22.1431 14.9619 22.3164 14.5308 22.4445V22.445ZM16.6289 21.3744C16.6125 21.387 16.5956 21.3969 16.582 21.4091L14.3963 19.2195C14.3309 19.1531 14.2472 19.1076 14.1559 19.0889C14.0646 19.0703 13.9698 19.0793 13.8836 19.1147C13.7975 19.1502 13.7238 19.2105 13.6721 19.2881C13.6204 19.3656 13.5929 19.4568 13.5933 19.55V22.6475C13.5713 22.6508 13.552 22.655 13.5291 22.6578C12.9466 22.7398 12.3556 22.7398 11.7731 22.6578C11.7549 22.6578 11.7366 22.6517 11.7183 22.6494V19.55C11.7183 19.4572 11.6907 19.3666 11.6392 19.2895C11.5876 19.2124 11.5143 19.1523 11.4286 19.1169C11.3429 19.0815 11.2486 19.0723 11.1576 19.0904C11.0667 19.1086 10.9832 19.1534 10.9177 19.2191L8.73236 21.4086C8.71408 21.395 8.69626 21.3838 8.67798 21.3697C8.20959 21.0153 7.79237 20.5979 7.43814 20.1294C7.42548 20.113 7.41564 20.0961 7.40345 20.0825L9.59298 17.8967C9.65946 17.8313 9.70494 17.7476 9.72359 17.6563C9.74224 17.5649 9.73323 17.4701 9.6977 17.3839C9.66217 17.2977 9.60174 17.224 9.52414 17.1723C9.44654 17.1207 9.35528 17.0933 9.26204 17.0938H6.16454C6.16126 17.0717 6.15704 17.0525 6.15423 17.0295C6.07205 16.4471 6.07205 15.856 6.15423 15.2736C6.15423 15.2553 6.16033 15.237 6.16267 15.2188H9.26204C9.3548 15.2187 9.44546 15.1912 9.52255 15.1396C9.59965 15.0881 9.65971 15.0148 9.69514 14.9291C9.73058 14.8433 9.73978 14.749 9.7216 14.6581C9.70341 14.5671 9.65865 14.4836 9.59298 14.4181L7.40579 12.2328C7.41939 12.2145 7.43064 12.1967 7.4447 12.1784C7.79911 11.71 8.21649 11.2928 8.68501 10.9386C8.70142 10.9259 8.71829 10.9161 8.73423 10.9039L10.92 13.0934C10.9856 13.1583 11.0689 13.2024 11.1595 13.2201C11.2501 13.2378 11.3438 13.2284 11.4291 13.1931C11.5143 13.1578 11.5872 13.098 11.6387 13.0214C11.6901 12.9448 11.7178 12.8548 11.7183 12.7625V9.665C11.7403 9.66172 11.7595 9.6575 11.7825 9.65469C12.0002 9.62587 12.2193 9.60804 12.4388 9.60125C12.8058 9.58786 13.1732 9.60621 13.537 9.65609C13.5553 9.65609 13.5736 9.66219 13.5919 9.66453V12.7625C13.5919 12.8553 13.6194 12.9459 13.671 13.023C13.7226 13.1001 13.7959 13.1602 13.8816 13.1956C13.9673 13.231 14.0616 13.2402 14.1525 13.2221C14.2435 13.2039 14.327 13.1591 14.3925 13.0934L16.5792 10.9062C16.5975 10.9198 16.6153 10.9311 16.6336 10.9452C17.102 11.2996 17.5192 11.7169 17.8735 12.1855C17.8861 12.2019 17.896 12.2188 17.9081 12.2347L15.7186 14.4205C15.6537 14.4861 15.6097 14.5694 15.592 14.66C15.5742 14.7505 15.5836 14.8443 15.619 14.9295C15.6543 15.0148 15.714 15.0877 15.7906 15.1391C15.8672 15.1906 15.9573 15.2183 16.0495 15.2188H19.147C19.1503 15.2408 19.1545 15.26 19.1574 15.283C19.2395 15.8654 19.2395 16.4565 19.1574 17.0389C19.1574 17.0572 19.1513 17.0755 19.1489 17.0938H16.0495C15.9568 17.0938 15.8661 17.1213 15.789 17.1729C15.7119 17.2244 15.6519 17.2977 15.6164 17.3834C15.581 17.4692 15.5718 17.5635 15.59 17.6544C15.6082 17.7454 15.6529 17.8289 15.7186 17.8944L17.9081 20.0797C17.8945 20.098 17.8833 20.1158 17.8692 20.1341C17.5148 20.6025 17.0974 21.0197 16.6289 21.3739V21.3744ZM18.427 19.2739L17.1825 18.0312H18.9445C18.8163 18.4624 18.6428 18.8788 18.427 19.2734V19.2739ZM23.4427 12.7939C23.1314 12.8494 22.8157 12.8765 22.4995 12.875C21.0082 12.8734 19.5784 12.2802 18.5238 11.2257C17.4693 10.1712 16.8762 8.74135 16.8745 7.25C16.8737 6.74504 16.9424 6.24237 17.0785 5.75609C17.3458 4.7839 17.8695 3.90143 18.5948 3.20104C19.3201 2.50064 20.2203 2.00808 21.2012 1.77489C22.1822 1.5417 23.2078 1.57646 24.1707 1.87554C25.1336 2.17461 25.9984 2.727 26.6746 3.4749C27.3508 4.2228 27.8135 5.13871 28.0144 6.12677C28.2153 7.11483 28.1469 8.13872 27.8164 9.09128C27.4858 10.0438 26.9054 10.8901 26.1357 11.5414C25.366 12.1927 24.4354 12.6251 23.4413 12.7934L23.4427 12.7939Z" fill="#53BED2"/>
</svg>
